<svg id="Layer_1" data-name="Layer 1" xmlns="http://www.w3.org/2000/svg" viewBox="0 0 54.01 9.42"><defs><style>.cls-1{fill:#fdfefe;}</style></defs><title>TN</title><path class="cls-1" d="M19.46,29v7.39H18.07V29H15.79V27.81h5.94V29Z" transform="translate(-15.79 -27.31)"/><path class="cls-1" d="M26.83,33.8H22.39A1.9,1.9,0,0,0,22.85,35a1.48,1.48,0,0,0,1.11.44,1.94,1.94,0,0,0,1-.26,2.12,2.12,0,0,0,.71-.83l1.07.59a3.21,3.21,0,0,1-1.16,1.25,3.14,3.14,0,0,1-1.62.41,2.85,2.85,0,0,1-2.13-.81,3,3,0,0,1-.79-2.18,2.92,2.92,0,0,1,.82-2.14,2.79,2.79,0,0,1,2.1-.84,2.8,2.8,0,0,1,2.09.76,3,3,0,0,1,.75,2.15ZM25.51,33a1.35,1.35,0,0,0-.45-.91,1.62,1.62,0,0,0-1-.32A1.51,1.51,0,0,0,23,32a1.59,1.59,0,0,0-.54.92Z" transform="translate(-15.79 -27.31)"/><path class="cls-1" d="M32.3,32.42a1.94,1.94,0,0,0-.68-.49,2,2,0,0,0-.84-.17,1.66,1.66,0,0,0-1.25.5,1.9,1.9,0,0,0-.47,1.34A1.87,1.87,0,0,0,29.54,35a1.69,1.69,0,0,0,1.3.5,1.87,1.87,0,0,0,.83-.18,1.72,1.72,0,0,0,.63-.52v1.46a2.46,2.46,0,0,1-.75.3,3.36,3.36,0,0,1-.85.1,2.89,2.89,0,0,1-2.13-.83,2.93,2.93,0,0,1-.82-2.16,2.86,2.86,0,0,1,.85-2.16,3.07,3.07,0,0,1,2.23-.82,3.25,3.25,0,0,1,.79.08,2.52,2.52,0,0,1,.68.26Z" transform="translate(-15.79 -27.31)"/><path class="cls-1" d="M33.61,36.39V27.31H34.8v4.44a2.24,2.24,0,0,1,.9-.84A2.66,2.66,0,0,1,37,30.65a2.61,2.61,0,0,1,1.06.19,1.55,1.55,0,0,1,.68.58,1.52,1.52,0,0,1,.21.54A5.18,5.18,0,0,1,39,33v3.37H37.68V33.54a2.8,2.8,0,0,0-.26-1.46,1.12,1.12,0,0,0-1-.36,1.8,1.8,0,0,0-.79.17,1.25,1.25,0,0,0-.55.46,1.19,1.19,0,0,0-.2.51,7.61,7.61,0,0,0,0,1v2.53Z" transform="translate(-15.79 -27.31)"/><path class="cls-1" d="M40.77,36.39V27.48l5.44,5.24.46.47.48.57V27.81h1.29v8.92l-5.57-5.34c-.14-.15-.29-.3-.43-.46s-.27-.33-.39-.5v6Z" transform="translate(-15.79 -27.31)"/><path class="cls-1" d="M55.65,33.8H51.21A1.85,1.85,0,0,0,51.67,35a1.48,1.48,0,0,0,1.11.44,1.88,1.88,0,0,0,1-.26,2.14,2.14,0,0,0,.72-.83l1.07.59a3.21,3.21,0,0,1-1.16,1.25,3.14,3.14,0,0,1-1.62.41,2.85,2.85,0,0,1-2.13-.81,3,3,0,0,1-.79-2.18,2.92,2.92,0,0,1,.82-2.14,3.14,3.14,0,0,1,4.19-.08,3,3,0,0,1,.75,2.15ZM54.33,33a1.32,1.32,0,0,0-.46-.91,1.58,1.58,0,0,0-1-.32,1.54,1.54,0,0,0-1,.31,1.64,1.64,0,0,0-.53.92Z" transform="translate(-15.79 -27.31)"/><path class="cls-1" d="M62.29,36.73,61,33.84l-.24-.6c-.06-.17-.12-.34-.17-.51-.08.25-.16.47-.23.65a4,4,0,0,1-.15.41l-1.32,2.94L56,30.84h1.35l1.25,2.68a2.75,2.75,0,0,1,.15.46c.05.2.09.42.13.66A1.68,1.68,0,0,1,59,34.2a3.07,3.07,0,0,1,.22-.57l1.35-3h.11l1.38,3a2.79,2.79,0,0,1,.27,1,4.85,4.85,0,0,1,.13-.6,4.23,4.23,0,0,1,.19-.51l1.22-2.69h1.35Z" transform="translate(-15.79 -27.31)"/><path class="cls-1" d="M65.33,35.39l1.06-.58a1.07,1.07,0,0,0,.43.63,1.37,1.37,0,0,0,.82.22,1,1,0,0,0,.67-.2.65.65,0,0,0,.24-.53q0-.45-.87-.78L67.23,34A3.7,3.7,0,0,1,66,33.23a1.29,1.29,0,0,1-.36-.93,1.46,1.46,0,0,1,.59-1.2,2.38,2.38,0,0,1,1.54-.47,2.32,2.32,0,0,1,1.1.24,1.43,1.43,0,0,1,.67.68l-.9.62a.76.76,0,0,0-.35-.42,1.06,1.06,0,0,0-.57-.16.9.9,0,0,0-.59.18.57.57,0,0,0-.22.46c0,.29.33.55,1,.79l.48.18a2.74,2.74,0,0,1,1.1.69,1.4,1.4,0,0,1,.33,1,1.56,1.56,0,0,1-.6,1.3,2.69,2.69,0,0,1-1.67.47,2.75,2.75,0,0,1-1.35-.3A2.2,2.2,0,0,1,65.33,35.39Z" transform="translate(-15.79 -27.31)"/></svg>